<svg width="167" height="167" viewBox="0 0 167 167" fill="none" xmlns="http://www.w3.org/2000/svg">
<g clip-path="url(#clip0_18_3)">
<mask id="mask0_18_3" style="mask-type:luminance" maskUnits="userSpaceOnUse" x="0" y="0" width="167" height="167">
<path d="M0 2.86102e-06H167V167H0V2.86102e-06Z" fill="white"/>
</mask>
<g mask="url(#mask0_18_3)">
<path d="M127.138 29.08C124.031 29.0813 120.941 29.5684 117.966 30.5257C117.989 30.0406 118.034 29.57 118.034 29.08C118.03 22.0326 115.626 15.2264 111.27 9.92519C106.913 4.62403 100.899 1.18825 94.3452 0.255869C87.7913 -0.676511 81.1427 0.957893 75.6339 4.85555C70.1252 8.75321 66.1307 14.6492 64.3924 21.4487C61.1856 20.082 57.764 19.379 54.3103 19.3772C50.7239 19.3772 47.1726 20.1301 43.8591 21.5929C40.5457 23.0557 37.535 25.1999 34.999 27.9029C32.463 30.6058 30.4513 33.8147 29.0789 37.3464C27.7064 40.878 27 44.6631 27 48.4857C27 52.3083 27.7064 56.0935 29.0789 59.6251C30.4513 63.1567 32.463 66.3656 34.999 69.0686C37.535 71.7716 40.5457 73.9157 43.8591 75.3785C47.1726 76.8414 50.7239 77.5943 54.3103 77.5943C60.3031 77.5902 66.128 75.4846 70.8867 71.6023C75.6454 67.72 79.0735 62.2768 80.6421 56.1122C83.8486 57.4804 87.2702 58.1851 90.7241 58.1886C92.431 58.1886 94.0924 57.9994 95.7128 57.684C95.4331 59.454 95.2869 61.2451 95.2759 63.04C95.2759 81.7908 109.546 97 127.138 97C144.73 97 159 81.7908 159 63.04C159 54.0333 155.643 45.3954 149.668 39.0267C143.693 32.6579 135.588 29.08 127.138 29.08Z" fill="#B4C3CC"/>
<path d="M145.219 96.5C143.152 96.5325 141.099 96.8654 139.118 97.4894C140.102 94.9383 140.662 92.1544 140.662 89.225C140.662 83.4367 138.502 77.8854 134.657 73.7924C130.812 69.6994 125.597 67.4 120.159 67.4C115.708 67.4137 111.384 68.9831 107.852 71.8668C106.252 65.0528 102.558 59.0034 97.3585 54.6793C92.1587 50.3551 85.7507 48.0043 79.1523 48C73.0122 48.0035 67.0251 50.0392 62.0201 53.8253C57.0152 57.6113 53.24 62.9603 51.2176 69.1315C46.2058 67.482 40.9186 67.0034 35.7171 67.7285C30.5156 68.4536 25.5225 70.3653 21.0787 73.333C16.635 76.3006 12.8454 80.2543 9.96881 84.924C7.09222 89.5937 5.19642 94.8692 4.41093 100.39C3.62544 105.911 3.96877 111.548 5.41745 116.915C6.86613 122.282 9.38604 127.253 12.805 131.488C16.224 135.723 20.4615 139.123 25.2281 141.455C29.9946 143.787 35.1779 144.996 40.4237 145H145.219C151.261 145 157.055 142.445 161.327 137.897C165.6 133.35 168 127.182 168 120.75C168 114.319 165.6 108.15 161.327 103.603C157.055 99.0549 151.261 96.5 145.219 96.5Z" fill="#8899A6"/>
</g>
</g>
<defs>
<clipPath id="clip0_18_3">
<rect width="167" height="167" fill="white"/>
</clipPath>
</defs>
</svg>
