<svg width="167" height="167" viewBox="0 0 167 167" fill="none" xmlns="http://www.w3.org/2000/svg">
<path d="M98.6176 29.5827C90.3517 11.9518 73.5609 1 54.7994 1C27.8922 1 6 23.8192 6 51.8658C6 69.0115 14.2246 84.8934 28.001 94.3544C28.6139 94.7754 29.3317 94.9998 30.0656 95L30.2195 94.9961L31.0116 94.9492C31.2781 94.9296 31.5521 94.9061 31.8262 94.9061H66.0608C67.0564 94.9061 68.0112 94.4939 68.7152 93.7601C69.4192 93.0263 69.8147 92.0311 69.8147 90.9934V74.8728C69.8147 57.1558 80.558 41.1175 96.5455 34.9705C97.0381 34.7815 97.4871 34.4868 97.8636 34.1055C98.24 33.7241 98.5354 33.2647 98.7307 32.7568C98.9261 32.2489 99.0169 31.704 98.9974 31.1572C98.9779 30.6104 98.8485 30.074 98.6176 29.5827Z" fill="#FCD699"/>
<path d="M128.795 60.9286H128.467V54.72C128.467 33.9213 112.673 17 93.2613 17H92.6053C73.1932 17 57.4 33.9213 57.4 54.72V63.8571H35.2053C15.7932 63.8571 0 80.7784 0 101.577V102.28C0 123.079 15.7932 140 35.2053 140H128.795C148.207 140 164 123.079 164 102.28V98.6486C164 77.8499 148.207 60.9286 128.795 60.9286Z" fill="#B4C3CC"/>
<path d="M161 83C160.897 106.062 142.025 124.792 118.322 124.792H6C12.4807 133.966 23.3284 140 35.601 140H131.083C150.887 140 167 124.309 167 105.022V101.654C167 94.7943 164.516 88.407 161 83Z" fill="#78909C"/>
</svg>
