<svg width="167" height="167" viewBox="0 0 167 167" fill="none" xmlns="http://www.w3.org/2000/svg">
<g clip-path="url(#clip0_14_10)">
<path fill-rule="evenodd" clip-rule="evenodd" d="M23.7078 48.4749V49.3242C16.4031 50.9418 9.95234 55.1982 5.59165 61.2777C1.23096 67.3571 -0.732894 74.8319 0.0764355 82.2696C0.885765 89.7074 4.41135 96.5848 9.97755 101.584C15.5437 106.583 22.759 109.353 30.2407 109.361H136.727C140.72 109.374 144.676 108.597 148.367 107.075C152.059 105.553 155.413 103.316 158.236 100.493C161.059 97.6693 163.297 94.3153 164.819 90.6239C166.341 86.9324 167.118 82.9764 167.105 78.9835C167.122 72.0432 164.752 65.308 160.393 59.9077C156.033 54.5075 149.949 50.7707 143.162 49.3242C139.383 40.2311 132.294 32.911 123.326 28.8427C114.359 24.7744 104.182 24.261 94.8509 27.4063C91.3305 22.0076 86.5229 17.569 80.8609 14.49C75.1989 11.411 68.8601 9.78812 62.4151 9.76754C57.3272 9.75028 52.286 10.7397 47.5821 12.6788C42.8781 14.6179 38.6042 17.4684 35.0064 21.0662C31.4087 24.6639 28.5582 28.9378 26.619 33.6418C24.6799 38.3458 23.6905 43.3869 23.7078 48.4749Z" fill="#78909C"/>
<path fill-rule="evenodd" clip-rule="evenodd" d="M53.6611 118.769C51.7992 122.296 46.2136 132.749 53.6611 133.631H53.8244C61.0759 132.651 55.5229 122.264 53.6611 118.769ZM93.4137 118.769C91.5518 122.296 85.9662 132.749 93.4137 133.631H93.577C100.828 132.651 95.3082 122.264 93.4137 118.769ZM133.166 118.769C131.304 122.296 125.719 132.749 133.166 133.631H133.297C140.581 132.651 135.028 122.264 133.166 118.769ZM73.7823 146.337C71.8878 149.865 66.3022 160.318 73.7823 161.2H73.913C81.1645 160.22 75.6442 149.833 73.7823 146.337ZM113.078 146.337C111.216 149.865 105.63 160.318 113.078 161.2H113.241C120.492 160.22 114.972 149.833 113.078 146.337ZM33.8337 118.769C31.9392 122.296 26.3536 132.749 33.8337 133.631H33.9644C41.2159 132.651 35.6956 122.264 33.8337 118.769ZM73.5537 118.769C71.6918 122.296 66.1062 132.749 73.5537 133.631H73.6843C80.9685 132.651 75.4156 122.264 73.5537 118.769ZM113.306 118.769C111.412 122.296 105.826 132.749 113.306 133.631H113.437C120.688 132.651 115.168 122.264 113.306 118.769ZM54.1184 146.337C52.2238 149.865 46.6382 160.318 54.1184 161.2H54.249C61.5005 160.22 55.9802 149.833 54.1184 146.337ZM93.4463 146.337C91.5518 149.865 85.9662 160.318 93.4463 161.2H93.577C100.828 160.22 95.3082 149.833 93.4463 146.337Z" fill="#1E88E5"/>
</g>
<defs>
<clipPath id="clip0_14_10">
<rect width="167" height="167" fill="white"/>
</clipPath>
</defs>
</svg>
