<svg width="175" height="168" viewBox="0 0 175 168" fill="none" xmlns="http://www.w3.org/2000/svg">
<g clip-path="url(#clip0_14_25)" filter="url(#filter0_d_14_25)">
<path fill-rule="evenodd" clip-rule="evenodd" d="M27.8097 48.7076V49.5568C20.505 51.1745 14.0542 55.4309 9.69355 61.5103C5.33286 67.5897 3.369 75.0646 4.17833 82.5023C4.98766 89.94 8.51325 96.8175 14.0794 101.817C19.6456 106.816 26.8609 109.585 34.3426 109.594H140.829C144.821 109.607 148.778 108.83 152.469 107.308C156.16 105.786 159.514 103.549 162.338 100.725C165.161 97.902 167.398 94.548 168.92 90.8565C170.443 87.1651 171.219 83.209 171.206 79.2161C171.224 72.2759 168.854 65.5407 164.495 60.1404C160.135 54.7401 154.051 51.0033 147.263 49.5568C143.485 40.4637 136.396 33.1437 127.428 29.0754C118.461 25.007 108.284 24.4937 98.9528 27.639C95.4324 22.2403 90.6248 17.8017 84.9628 14.7227C79.3008 11.6436 72.962 10.0208 66.517 10.0002C61.4291 9.98296 56.3879 10.9724 51.684 12.9115C46.98 14.8506 42.7061 17.7011 39.1083 21.2988C35.5106 24.8966 32.6601 29.1705 30.7209 33.8745C28.7818 38.5785 27.7924 43.6196 27.8097 48.7076Z" fill="#78909C"/>
<path d="M135.195 130.324C139.751 130.324 143.444 126.631 143.444 122.075C143.444 117.519 139.751 113.826 135.195 113.826C130.639 113.826 126.946 117.519 126.946 122.075C126.946 126.631 130.639 130.324 135.195 130.324Z" fill="#BEC9D1"/>
<path d="M67.8565 159.055C72.4123 159.055 76.1055 155.362 76.1055 150.806C76.1055 146.251 72.4123 142.557 67.8565 142.557C63.3007 142.557 59.6075 146.251 59.6075 150.806C59.6075 155.362 63.3007 159.055 67.8565 159.055Z" fill="#8899A6"/>
<path d="M106.464 150.975C111.02 150.975 114.713 147.282 114.713 142.726C114.713 138.17 111.02 134.477 106.464 134.477C101.908 134.477 98.2151 138.17 98.2151 142.726C98.2151 147.282 101.908 150.975 106.464 150.975Z" fill="#BEC9D1"/>
<path d="M29.249 146.486C33.8048 146.486 37.498 142.792 37.498 138.237C37.498 133.681 33.8048 129.988 29.249 129.988C24.6932 129.988 21 133.681 21 138.237C21 142.792 24.6932 146.486 29.249 146.486Z" fill="#8899A6"/>
<path d="M105.847 86.498C110.403 86.498 114.096 82.8048 114.096 78.249C114.096 73.6932 110.403 70 105.847 70C101.291 70 97.5978 73.6932 97.5978 78.249C97.5978 82.8048 101.291 86.498 105.847 86.498Z" fill="#BEC9D1"/>
<path d="M66.9587 125.835C71.5145 125.835 75.2077 122.142 75.2077 117.586C75.2077 113.03 71.5145 109.337 66.9587 109.337C62.4029 109.337 58.7097 113.03 58.7097 117.586C58.7097 122.142 62.4029 125.835 66.9587 125.835Z" fill="#BEC9D1"/>
<path d="M66.9587 125.835C71.5145 125.835 75.2077 122.142 75.2077 117.586C75.2077 113.03 71.5145 109.337 66.9587 109.337C62.4029 109.337 58.7097 113.03 58.7097 117.586C58.7097 122.142 62.4029 125.835 66.9587 125.835Z" fill="#BEC9D1"/>
<path d="M37.3296 101.593C41.8854 101.593 45.5786 97.8999 45.5786 93.3441C45.5786 88.7883 41.8854 85.0951 37.3296 85.0951C32.7738 85.0951 29.0807 88.7883 29.0807 93.3441C29.0807 97.8999 32.7738 101.593 37.3296 101.593Z" fill="#BEC9D1"/>
<path d="M97.4856 117.754C102.041 117.754 105.735 114.061 105.735 109.505C105.735 104.95 102.041 101.256 97.4856 101.256C92.9298 101.256 89.2366 104.95 89.2366 109.505C89.2366 114.061 92.9298 117.754 97.4856 117.754Z" fill="#8899A6"/>
</g>
<defs>
<filter id="filter0_d_14_25" x="0" y="0" width="175" height="175" filterUnits="userSpaceOnUse" color-interpolation-filters="sRGB">
<feFlood flood-opacity="0" result="BackgroundImageFix"/>
<feColorMatrix in="SourceAlpha" type="matrix" values="0 0 0 0 0 0 0 0 0 0 0 0 0 0 0 0 0 0 127 0" result="hardAlpha"/>
<feOffset dy="4"/>
<feGaussianBlur stdDeviation="2"/>
<feComposite in2="hardAlpha" operator="out"/>
<feColorMatrix type="matrix" values="0 0 0 0 0 0 0 0 0 0 0 0 0 0 0 0 0 0 0.25 0"/>
<feBlend mode="normal" in2="BackgroundImageFix" result="effect1_dropShadow_14_25"/>
<feBlend mode="normal" in="SourceGraphic" in2="effect1_dropShadow_14_25" result="shape"/>
</filter>
<clipPath id="clip0_14_25">
<rect width="167" height="167" fill="white" transform="translate(4)"/>
</clipPath>
</defs>
</svg>
